# xmcd
#
# Track frame offsets: 
#        150
#        12337
#        24120
#        36557
#        47285
#        61392
#        71010
#        84157
#        95447
#        105267
#        115585
#        128242
#        141375
#        154597
#        165460
#        174935
#        185075
#        199492
#        212595
#        225075
#
# Disc length: 3166 seconds
#
# Revision: 1
# Processed by: cddbd v1.5.1PL2 Copyright (c) Steve Scherf et al.
# Submitted via: ExactAudioCopy v0.95b4
#
DISCID=fa0c5c14
DTITLE=Jack Greene - The Jolly Green Giant
DYEAR=1997
DGENRE=Country
TTITLE0=Ever Since My Baby Went Away
TTITLE1=There Goes My Everthing
TTITLE2=All The Time
TTITLE3=What LocksThe Door
TTITLE4=You Are My Treasure
TTITLE5=Love Takes Care Of Me
TTITLE6=Statue Of A Fool
TTITLE7=Back In The Arms Of Love
TTITLE8=Wish I Didn't Have To Miss You (with Jeannie Seely) 
TTITLE9=The Whole World Comes To Me
TTITLE10=If This Is Love
TTITLE11=Something Unseen
TTITLE12=There's A Whole Lot About A Woman (That A Man Don't Know)
TTITLE13=Makin' Up His Mind
TTITLE14=Much Oblige (with Jeannie Seely)
TTITLE15=What In The World Has Gone Wrong With Our Love (with Jeannie 
TTITLE15=Seely)
TTITLE16=Satisfaction
TTITLE17=I Need Somebody Bad
TTITLE18=It's Time To Cross That Bridge
TTITLE19=He LIttle Thing'd Her Out Of My Arms
EXTD=
EXTT0=
EXTT1=
EXTT2=
EXTT3=
EXTT4=
EXTT5=
EXTT6=
EXTT7=
EXTT8=
EXTT9=
EXTT10=
EXTT11=
EXTT12=
EXTT13=
EXTT14=
EXTT15=
EXTT16=
EXTT17=
EXTT18=
EXTT19=
PLAYORDER=
